<?xml version="1.0" encoding="UTF-8"?>
<svg id="En" xmlns="http://www.w3.org/2000/svg" viewBox="0 0 320 320">
  <defs>
    <style>
      .cls-1 {
        fill: #fff;
      }
    </style>
  </defs>
  <path class="cls-1" d="M112.85,150.69c0,20.83,16.95,37.78,37.78,37.78s37.78-16.95,37.78-37.78-16.95-37.78-37.78-37.78-37.78,16.95-37.78,37.78Zm57.66,0c0,10.96-8.92,19.88-19.88,19.88s-19.88-8.92-19.88-19.88,8.92-19.88,19.88-19.88c10.96,0,19.88,8.92,19.88,19.88Z"/>
  <path class="cls-1" d="M287.69,81.84c-1,0-1.99,.06-2.98,.15C258.99,31.94,207.18,0,150.62,0c-4.94,0-8.95,4.01-8.95,8.95V57.89c-47.24,4.52-84.31,44.42-84.31,92.81,0,13.78,3.03,26.87,8.42,38.65l-34.39,19.85c-20.17-41.14-17.61-90.12,6.75-129.07,1.28,.53,2.59,1,3.95,1.37,2.79,.75,5.61,1.12,8.42,1.12,5.6,0,11.13-1.47,16.12-4.35,7.48-4.32,12.83-11.29,15.07-19.64,2.24-8.34,1.09-17.06-3.23-24.54s-11.29-12.83-19.64-15.07c-8.34-2.24-17.06-1.09-24.54,3.23-15.44,8.92-20.75,28.74-11.84,44.18,.5,.87,1.05,1.7,1.62,2.51-30.48,47.31-32.24,108.13-3.97,157.11,1.66,2.87,4.66,4.48,7.76,4.48,1.52,0,3.06-.39,4.46-1.2l42.42-24.49c16.93,23.66,44.61,39.13,75.87,39.13s58.93-15.46,75.87-39.13l34.41,19.87c-25.54,38.04-69.24,60.33-115.16,58.69-.19-1.37-.43-2.74-.79-4.1-2.24-8.34-7.59-15.32-15.07-19.64s-16.19-5.47-24.54-3.23c-8.34,2.24-15.32,7.59-19.64,15.07-8.91,15.44-3.61,35.26,11.84,44.18h0c5.08,2.93,10.63,4.33,16.11,4.33,11.18,0,22.08-5.8,28.06-16.16,.5-.86,.94-1.74,1.35-2.63,2.46,.12,4.91,.18,7.36,.18,53.48,0,103.66-28.49,130.7-75.33,1.19-2.06,1.51-4.5,.89-6.79-.61-2.29-2.11-4.25-4.17-5.43l-42.4-24.48c5.39-11.79,8.42-24.87,8.42-38.65,0-48.4-37.07-88.29-84.31-92.81V18.2c45.72,3.1,86.87,29.82,108.42,70.41-7.67,5.92-12.64,15.17-12.64,25.59,0,17.83,14.51,32.34,32.34,32.34s32.34-14.51,32.34-32.34-14.48-32.36-32.31-32.36ZM43.25,37.74c3.34-1.93,7.23-2.44,10.96-1.44,3.73,1,6.84,3.39,8.77,6.73,1.93,3.34,2.44,7.23,1.44,10.96-1,3.73-3.39,6.84-6.73,8.77-3.34,1.93-7.23,2.44-10.96,1.44-3.73-1-6.84-3.39-8.77-6.73-3.98-6.89-1.61-15.74,5.29-19.73ZM126.22,294.85c-3.98,6.9-12.83,9.27-19.73,5.29s-9.27-12.83-5.29-19.73c1.93-3.34,5.04-5.73,8.77-6.73,3.73-.99,7.62-.48,10.96,1.44,3.34,1.93,5.73,5.04,6.73,8.77,1,3.73,.49,7.62-1.44,10.96Zm99.76-144.17c0,41.56-33.8,75.36-75.37,75.36s-75.37-33.81-75.37-75.36,33.8-75.36,75.37-75.36,75.37,33.81,75.37,75.36Zm61.71-22.07c-7.96,0-14.44-6.48-14.44-14.44s6.48-14.44,14.44-14.44,14.44,6.48,14.44,14.44c0,7.96-6.48,14.44-14.44,14.44Z"/>
</svg>