<?xml version="1.0" encoding="utf-8"?>
<!-- Generator: Adobe Illustrator 27.0.0, SVG Export Plug-In . SVG Version: 6.00 Build 0)  -->
<svg version="1.1" id="En" xmlns="http://www.w3.org/2000/svg" xmlns:xlink="http://www.w3.org/1999/xlink" x="0px" y="0px"
	 viewBox="0 0 1621.79 402.38" style="enable-background:new 0 0 1621.79 402.38;" xml:space="preserve">
<style type="text/css">
	.st0{fill:#FFFFFF;}
</style>
<g>
	<g>
		<g>
			<g>
				<path class="st0" d="M422.53,208.9V83.32h76.07l-1.9,12.71l-35.28-5.88c-6.2,0-13.03,1.08-20.49,3.23v46.09h42.11v7.21h-42.11
					v55.39l58.8-5.88l-1.9,12.71L422.53,208.9L422.53,208.9z"/>
				<path class="st0" d="M612.41,81.04c16.44,0,30.03,5.41,40.78,16.22s16.12,25.83,16.12,45.05c0,10.5-1.55,19.89-4.65,28.17
					c-3.1,8.28-7.31,15.02-12.62,20.2c-10.12,10.12-22.19,16.44-36.23,18.97l31.11,22.19l-15.75,11.19l-28.07-31.87h-1.71
					c-16.44,0-30.01-5.47-40.69-16.41c-10.69-10.94-16.03-26.02-16.03-45.24c0-9.99,1.42-19,4.27-27.03s6.57-14.57,11.19-19.63
					c4.61-5.06,9.96-9.29,16.03-12.71C587.31,84.08,599.39,81.04,612.41,81.04z M587.56,200.27c5.56,3.1,11.98,4.65,19.25,4.65
					s13.75-1.83,19.44-5.5c5.69-3.67,10.12-8.47,13.28-14.42c6.45-11.89,9.68-24.66,9.68-38.32c0-16.82-3.35-30.35-10.06-40.59
					c-7.46-11.51-19.79-17.26-36.99-17.26c-12.27,4.3-21.56,11.7-27.88,22.19c-6.33,10.5-9.48,22.38-9.48,35.66
					c0,16.19,3.16,29.72,9.48,40.6C577.57,192.84,582,197.17,587.56,200.27z"/>
				<path class="st0" d="M812.35,83.32v77.02c0,11.76-1.27,20.61-3.79,26.56c-1.14,2.65-2.94,5.66-5.41,9.01
					c-2.47,3.35-5.35,6.04-8.63,8.06c-8.35,4.81-18.78,7.21-31.3,7.21c-31.36,0-47.04-16.12-47.04-48.37V83.32h19.35v81
					c0,3.67,0.06,6.64,0.19,8.92c0.12,2.28,0.79,5.5,1.99,9.67c1.2,4.17,2.84,7.53,4.93,10.05c2.09,2.53,5.37,4.81,9.86,6.83
					c4.49,2.02,9.83,3.04,16.03,3.04c23.64,0,35.47-12.64,35.47-37.94V83.32H812.35z"/>
				<path class="st0" d="M887.27,83.32V208.9h-17.45V83.32H887.27z"/>
				<path class="st0" d="M1032,115.95c0,12.14-4.46,21.34-13.37,27.6c-8.91,6.26-21.03,9.39-36.33,9.39h-16.31v55.96h-18.4V83.32
					h40.78c12.77,0,23.24,2.91,31.39,8.73C1027.93,97.86,1032,105.83,1032,115.95z M965.99,147.44h16.88
					c5.94,0,11.03-1.14,15.27-3.41c4.24-2.28,7.3-5.18,9.2-8.73c3.41-6.32,5.12-12.46,5.12-18.4c0-2.91-0.76-6.38-2.28-10.43
					c-3.04-8.35-9.3-13.78-18.78-16.31c-9.11,0-17.58,1.08-25.42,3.23v54.05H965.99z"/>
				<path class="st0" d="M1091,105.13c0,5.57,2.18,10.72,6.54,15.46s9.67,8.92,15.93,12.52c6.26,3.6,12.49,7.27,18.68,11
					c6.2,3.73,11.48,8.32,15.84,13.75c4.36,5.44,6.54,11.45,6.54,18.02c0,10.37-3.83,18.84-11.48,25.42
					c-7.65,6.58-17.99,9.86-31.01,9.86c-13.02,0-25.92-2.47-38.7-7.4v-8.92c12.9,6.45,23.87,9.67,32.91,9.67s16.09-2.21,21.15-6.64
					c5.06-4.42,7.59-10.56,7.59-18.4c0-5.31-2.09-10.15-6.26-14.51s-9.23-8.16-15.18-11.38c-5.94-3.23-11.89-6.54-17.83-9.96
					c-5.94-3.41-11-7.75-15.18-12.99c-4.17-5.25-6.26-11.6-6.26-19.06s3.32-14.42,9.96-20.87c6.64-6.45,16.53-9.67,29.69-9.67
					c8.6,0,19.47,1.96,32.63,5.88l-1.89,12.9c-17.07-7.33-31.68-11-43.82-11C1094.28,91.98,1091,97.42,1091,105.13z"/>
				<path class="st0" d="M1266.84,211.17c-19.6,0-36.11-5.31-49.51-15.93c-13.41-10.62-20.11-25.86-20.11-45.72
					c0-11.63,2.21-22,6.64-31.11c4.42-9.11,10.24-16.25,17.45-21.44c14.54-10.62,30.85-15.93,48.94-15.93
					c10.49,0,21.43,1.9,32.82,5.69l-1.89,12.9c-5.95-2.53-10.56-4.42-13.85-5.69c-9.49-3.41-19.04-5.12-28.64-5.12
					c-13.28,3.04-23.49,9.61-30.64,19.73s-10.72,22.76-10.72,37.94c0,18.59,4.87,32.91,14.6,42.97
					c9.74,10.05,22.57,15.08,38.51,15.08c15.93,0,27.82-3.41,35.66-10.24v10.43C1295.23,209.02,1282.14,211.17,1266.84,211.17z"/>
				<path class="st0" d="M1339.87,208.9l56.34-128.61h2.84l56.34,128.61h-20.68l-14.23-34.14h-56.34l-14.04,34.14H1339.87z
					 M1367,167.54h50.46l-25.04-61.46L1367,167.54z"/>
				<path class="st0" d="M1595.95,210.98h-3.22l-83.09-103.95h-0.76V208.9h-8.35V83.32h14.04l72.27,91.24h0.76V83.32h8.35
					L1595.95,210.98L1595.95,210.98z"/>
			</g>
		</g>
		<g>
			<g>
				<path class="st0" d="M514.35,306.03h-4.87l-7.76-10.78c-0.41,0.03-1.06,0.05-1.94,0.05h-7.9v10.74h-3.97V272.7h13.14
					c3.99,0,7.03,0.96,9.12,2.89c2.09,1.92,3.14,4.72,3.14,8.38c0,2.66-0.62,4.88-1.85,6.65c-1.23,1.77-3.05,3.05-5.45,3.83
					L514.35,306.03z M499.46,291.6c3.12,0,5.51-0.66,7.16-1.97c1.65-1.32,2.47-3.21,2.47-5.67c0-2.48-0.73-4.36-2.18-5.65
					c-1.45-1.28-3.59-1.93-6.41-1.93h-8.61v15.22H499.46z"/>
				<path class="st0" d="M555.48,306.03v-33.34h22.65v3.69h-18.68v11.24h15.75v3.69h-15.75v11.01h19.67v3.69h-23.64V306.03z"/>
				<path class="st0" d="M632.92,306.61c-2.79,0-5.16-0.22-7.12-0.66c-1.96-0.44-4.21-1.2-6.73-2.27l1.52-3.74
					c2.43,1.09,4.51,1.86,6.22,2.31c1.72,0.45,3.67,0.67,5.88,0.67c2.46,0,4.38-0.51,5.75-1.53c1.37-1.02,2.06-2.45,2.06-4.29
					c0-0.54-0.07-1.03-0.22-1.47c-0.15-0.44-0.34-0.83-0.58-1.17c-0.24-0.34-0.58-0.65-1.02-0.94c-0.44-0.28-0.88-0.53-1.33-0.74
					s-1.02-0.42-1.72-0.62c-0.7-0.21-1.36-0.39-1.99-0.53c-0.62-0.15-1.4-0.31-2.32-0.5c-1.54-0.31-2.87-0.63-3.99-0.97
					c-1.12-0.34-2.21-0.77-3.27-1.29c-1.05-0.52-1.9-1.12-2.55-1.78c-0.65-0.66-1.16-1.47-1.55-2.44c-0.39-0.96-0.58-2.05-0.58-3.27
					c0-2.77,1.02-5.01,3.05-6.71c2.03-1.7,4.93-2.55,8.68-2.55c4.48,0,8.54,0.86,12.17,2.59l-1.71,3.51
					c-3.26-1.62-6.76-2.43-10.51-2.43c-2.45,0-4.32,0.55-5.61,1.65s-1.94,2.41-1.94,3.94c0,0.71,0.15,1.34,0.45,1.91
					c0.3,0.56,0.69,1.03,1.16,1.41s1.13,0.74,1.99,1.07c0.85,0.34,1.69,0.62,2.49,0.83c0.81,0.22,1.85,0.46,3.13,0.74
					c1.06,0.23,1.99,0.45,2.78,0.66c0.79,0.21,1.62,0.46,2.49,0.76c0.87,0.3,1.61,0.62,2.23,0.96c0.61,0.34,1.21,0.74,1.8,1.21
					c0.59,0.47,1.05,0.98,1.4,1.55c0.35,0.56,0.63,1.21,0.84,1.95c0.22,0.74,0.32,1.55,0.32,2.42c0,3.25-1.04,5.68-3.11,7.31
					C639.42,305.8,636.56,306.61,632.92,306.61z"/>
				<path class="st0" d="M702.18,306.61c-3.34,0-6.34-0.69-8.99-2.06c-2.66-1.37-4.75-3.37-6.29-6s-2.31-5.69-2.31-9.17
					c0-2.49,0.41-4.8,1.25-6.93c0.83-2.12,2-3.94,3.51-5.46c1.51-1.52,3.36-2.7,5.56-3.57c2.2-0.86,4.62-1.29,7.27-1.29
					c2.49,0,4.82,0.4,6.97,1.2c2.15,0.8,4.02,1.93,5.6,3.39c1.58,1.46,2.82,3.28,3.72,5.46c0.9,2.18,1.35,4.58,1.35,7.19
					c0,2.48-0.42,4.78-1.26,6.89c-0.84,2.12-2.01,3.94-3.52,5.46c-1.51,1.53-3.37,2.72-5.59,3.58
					C707.23,306.18,704.81,306.61,702.18,306.61z M702.18,302.91c2.54,0,4.83-0.54,6.87-1.62s3.66-2.65,4.86-4.72s1.8-4.47,1.8-7.19
					c0-2.6-0.55-4.93-1.66-6.98c-1.11-2.06-2.69-3.67-4.76-4.84c-2.06-1.17-4.43-1.76-7.11-1.76c-2.54,0-4.83,0.54-6.86,1.63
					c-2.03,1.09-3.64,2.67-4.84,4.74c-1.19,2.08-1.79,4.48-1.79,7.21c0,3.94,1.24,7.18,3.73,9.72
					C694.91,301.64,698.16,302.91,702.18,302.91z"/>
				<path class="st0" d="M785.36,303.18c-2.23,2.28-5.69,3.43-10.37,3.43s-8.14-1.14-10.37-3.43c-2.23-2.29-3.35-5.73-3.35-10.33
					v-20.16h3.97v19.3c0,3.74,0.76,6.48,2.29,8.22c1.52,1.74,4.01,2.61,7.46,2.61s5.93-0.87,7.46-2.61s2.29-4.48,2.29-8.22v-19.3
					h3.97v20.16C788.71,297.45,787.59,300.89,785.36,303.18z"/>
				<path class="st0" d="M858.22,306.03h-4.87l-7.76-10.78c-0.42,0.03-1.06,0.05-1.94,0.05h-7.9v10.74h-3.97V272.7h13.14
					c3.99,0,7.03,0.96,9.12,2.89c2.09,1.92,3.14,4.72,3.14,8.38c0,2.66-0.62,4.88-1.85,6.65c-1.23,1.77-3.05,3.05-5.45,3.83
					L858.22,306.03z M843.33,291.6c3.12,0,5.51-0.66,7.16-1.97c1.65-1.32,2.47-3.21,2.47-5.67c0-2.48-0.73-4.36-2.18-5.65
					c-1.45-1.28-3.59-1.93-6.41-1.93h-8.61v15.22H843.33z"/>
				<path class="st0" d="M914.66,306.61c-3.36,0-6.31-0.7-8.87-2.11c-2.55-1.41-4.54-3.43-5.95-6.07c-1.41-2.64-2.11-5.71-2.11-9.22
					c0-5.28,1.54-9.44,4.63-12.49s7.19-4.57,12.3-4.57c6.1,0,10.88,2.12,14.34,6.37l-3.12,2.61c-1.23-1.63-2.8-2.92-4.71-3.88
					s-4.08-1.43-6.51-1.43c-3.82,0-6.91,1.2-9.27,3.6c-2.36,2.4-3.54,5.67-3.54,9.79c0,4.13,1.19,7.44,3.57,9.95
					c2.38,2.51,5.46,3.76,9.25,3.76c2.45,0,4.62-0.47,6.52-1.4c1.9-0.93,3.47-2.21,4.7-3.84l3.12,2.59
					C925.55,304.49,920.77,306.61,914.66,306.61z"/>
				<path class="st0" d="M970.69,306.03v-33.34h22.65v3.69h-18.68v11.24h15.75v3.69h-15.75v11.01h19.67v3.69h-23.64V306.03z"/>
				<path class="st0" d="M1115.21,272.41h2.12v33.62h-3.97v-24.06l-12.01,17.96h-1.89l-12.01-17.73v23.83h-3.97v-33.62h2.12
					l14.89,22.33L1115.21,272.41z"/>
				<path class="st0" d="M1176.92,306.61c-3.34,0-6.34-0.69-8.99-2.06c-2.65-1.37-4.75-3.37-6.29-6s-2.31-5.69-2.31-9.17
					c0-2.49,0.42-4.8,1.25-6.93c0.83-2.12,2-3.94,3.51-5.46c1.51-1.52,3.36-2.7,5.56-3.57c2.2-0.86,4.63-1.29,7.27-1.29
					c2.49,0,4.82,0.4,6.97,1.2c2.16,0.8,4.02,1.93,5.6,3.39s2.82,3.28,3.72,5.46c0.9,2.18,1.35,4.58,1.35,7.19
					c0,2.48-0.42,4.78-1.26,6.89c-0.84,2.12-2.01,3.94-3.52,5.46c-1.51,1.53-3.37,2.72-5.59,3.58
					C1181.97,306.18,1179.55,306.61,1176.92,306.61z M1176.92,302.91c2.54,0,4.83-0.54,6.87-1.62s3.66-2.65,4.86-4.72
					s1.8-4.47,1.8-7.19c0-2.6-0.55-4.93-1.66-6.98c-1.11-2.06-2.7-3.67-4.76-4.84c-2.06-1.17-4.43-1.76-7.11-1.76
					c-2.54,0-4.82,0.54-6.86,1.63c-2.03,1.09-3.64,2.67-4.84,4.74c-1.19,2.08-1.79,4.48-1.79,7.21c0,3.94,1.24,7.18,3.73,9.72
					C1169.65,301.64,1172.9,302.91,1176.92,302.91z"/>
				<path class="st0" d="M1261.09,272.69h3.97v33.71h-2.03l-22.51-26v25.63h-3.97v-33.76h2.03l22.51,26.05V272.69z"/>
				<path class="st0" d="M1308.83,306.03v-33.34h4.11v33.34H1308.83z"/>
				<path class="st0" d="M1365.85,306.03v-29.65h-11.43v-3.69h26.95v3.69h-11.45v29.65H1365.85z"/>
				<path class="st0" d="M1435.82,306.61c-3.34,0-6.34-0.69-8.99-2.06c-2.66-1.37-4.75-3.37-6.29-6s-2.31-5.69-2.31-9.17
					c0-2.49,0.42-4.8,1.25-6.93c0.83-2.12,2-3.94,3.51-5.46c1.51-1.52,3.36-2.7,5.56-3.57c2.2-0.86,4.63-1.29,7.27-1.29
					c2.49,0,4.82,0.4,6.97,1.2c2.15,0.8,4.02,1.93,5.6,3.39c1.58,1.46,2.82,3.28,3.72,5.46c0.9,2.18,1.35,4.58,1.35,7.19
					c0,2.48-0.42,4.78-1.26,6.89c-0.84,2.12-2.01,3.94-3.52,5.46c-1.51,1.53-3.37,2.72-5.59,3.58
					C1440.88,306.18,1438.45,306.61,1435.82,306.61z M1435.82,302.91c2.54,0,4.83-0.54,6.87-1.62s3.66-2.65,4.86-4.72
					s1.8-4.47,1.8-7.19c0-2.6-0.55-4.93-1.66-6.98c-1.11-2.06-2.7-3.67-4.76-4.84c-2.06-1.17-4.43-1.76-7.11-1.76
					c-2.54,0-4.82,0.54-6.86,1.63c-2.03,1.09-3.64,2.67-4.84,4.74c-1.19,2.08-1.79,4.48-1.79,7.21c0,3.94,1.24,7.18,3.73,9.72
					C1428.55,301.64,1431.81,302.91,1435.82,302.91z"/>
				<path class="st0" d="M1521.89,306.03h-4.87l-7.76-10.78c-0.42,0.03-1.06,0.05-1.94,0.05h-7.9v10.74h-3.97V272.7h13.14
					c3.99,0,7.03,0.96,9.12,2.89s3.14,4.72,3.14,8.38c0,2.66-0.62,4.88-1.85,6.65s-3.05,3.05-5.45,3.83L1521.89,306.03z M1507,291.6
					c3.12,0,5.51-0.66,7.16-1.97s2.47-3.21,2.47-5.67c0-2.48-0.73-4.36-2.18-5.65c-1.45-1.28-3.59-1.93-6.41-1.93h-8.61v15.22H1507z
					"/>
			</g>
		</g>
	</g>
	<g>
		<g>
			<path class="st0" d="M165.79,184.15c0,20.83,16.95,37.78,37.78,37.78s37.78-16.95,37.78-37.78s-16.95-37.78-37.78-37.78
				S165.79,163.32,165.79,184.15z M223.46,184.15c0,10.96-8.92,19.88-19.88,19.88c-10.96,0-19.88-8.92-19.88-19.88
				s8.92-19.88,19.88-19.88C214.54,164.27,223.46,173.19,223.46,184.15z"/>
			<path class="st0" d="M340.64,115.3c-1,0-2,0.06-2.98,0.15c-25.73-50.05-77.53-82-134.09-82c-4.94,0-8.95,4.01-8.95,8.95v48.94
				c-47.24,4.52-84.31,44.42-84.31,92.82c0,13.78,3.03,26.87,8.42,38.65l-34.39,19.85c-20.17-41.14-17.61-90.13,6.75-129.08
				c1.28,0.53,2.59,1,3.95,1.37c2.79,0.75,5.61,1.12,8.42,1.12c5.6,0,11.13-1.47,16.12-4.35c7.48-4.32,12.83-11.29,15.07-19.64
				c2.24-8.34,1.09-17.06-3.23-24.54c-4.32-7.48-11.29-12.83-19.64-15.07c-8.34-2.24-17.06-1.09-24.54,3.23
				C71.8,64.61,66.49,84.43,75.41,99.87c0.5,0.87,1.05,1.7,1.62,2.51c-30.48,47.31-32.25,108.14-3.97,157.12
				c1.66,2.87,4.66,4.48,7.76,4.48c1.52,0,3.06-0.39,4.47-1.2l42.42-24.49c16.93,23.66,44.62,39.13,75.87,39.13
				s58.94-15.46,75.87-39.13l34.41,19.87c-25.54,38.04-69.24,60.33-115.16,58.69c-0.19-1.37-0.43-2.74-0.79-4.1
				c-2.24-8.34-7.59-15.32-15.07-19.64c-7.48-4.32-16.19-5.47-24.54-3.23c-8.34,2.24-15.32,7.59-19.64,15.07
				c-8.91,15.44-3.61,35.26,11.84,44.18l0,0c5.08,2.93,10.63,4.33,16.11,4.33c11.19,0,22.08-5.8,28.06-16.16
				c0.5-0.86,0.94-1.74,1.35-2.63c2.46,0.12,4.91,0.18,7.36,0.18c53.49,0,103.66-28.49,130.7-75.33c1.19-2.06,1.51-4.5,0.89-6.79
				c-0.61-2.29-2.11-4.25-4.17-5.43l-42.4-24.48c5.39-11.79,8.42-24.87,8.42-38.65c0-48.4-37.07-88.3-84.31-92.82v-39.7
				c45.72,3.1,86.87,29.82,108.42,70.41c-7.67,5.92-12.64,15.17-12.64,25.59c0,17.83,14.51,32.34,32.34,32.34
				s32.34-14.51,32.34-32.34S358.47,115.3,340.64,115.3z M96.2,71.19c3.34-1.93,7.23-2.44,10.96-1.44c3.73,1,6.84,3.39,8.77,6.73
				c1.93,3.34,2.44,7.23,1.44,10.96c-1,3.73-3.39,6.84-6.73,8.77c-3.34,1.93-7.23,2.44-10.96,1.44s-6.84-3.39-8.77-6.73
				C86.93,84.03,89.3,75.18,96.2,71.19z M179.17,328.33c-3.98,6.9-12.83,9.27-19.73,5.29c-6.9-3.98-9.27-12.83-5.29-19.73
				c1.93-3.34,5.04-5.73,8.77-6.73c3.73-0.99,7.62-0.48,10.96,1.44c3.34,1.93,5.73,5.04,6.73,8.77
				C181.61,321.1,181.1,324.99,179.17,328.33z M278.94,184.15c0,41.56-33.81,75.36-75.36,75.36s-75.36-33.81-75.36-75.36
				c0-41.56,33.81-75.36,75.36-75.36S278.94,142.6,278.94,184.15z M340.64,162.08c-7.96,0-14.44-6.48-14.44-14.44
				c0-7.96,6.48-14.44,14.44-14.44s14.44,6.48,14.44,14.44C355.08,155.6,348.61,162.08,340.64,162.08z"/>
		</g>
	</g>
</g>
</svg>
